<svg xmlns="http://www.w3.org/2000/svg" width="32" height="32" viewBox="0 0 8.467 8.467" id="upload"><g transform="translate(-68.78 -50.8)"><path fill="#c8d4dd" d="m 69.572496,55.826048 a 0.26460981,0.26460981 0 0 0 -0.264067,0.265618 V 58.4724 a 0.26460981,0.26460981 0 0 0 0.264067,0.266134 h 6.878651 A 0.26460981,0.26460981 0 0 0 76.716762,58.4724 v -2.380734 a 0.26460981,0.26460981 0 0 0 -0.265615,-0.265618 h -1.588016 a 0.26460981,0.26460981 0 0 0 -0.263552,0.265618 v 1.058849 h -3.175515 v -1.058849 a 0.26460981,0.26460981 0 0 0 -0.264068,-0.265618 z" color="#000" font-family="sans-serif" font-weight="400" overflow="visible" paint-order="markers fill stroke" style="line-height:normal;font-variant-ligatures:normal;font-variant-position:normal;font-variant-caps:normal;font-variant-numeric:normal;font-variant-alternates:normal;font-feature-settings:normal;text-indent:0;text-align:start;text-decoration-line:none;text-decoration-style:solid;text-decoration-color:#000;text-transform:none;text-orientation:mixed;shape-padding:0;isolation:auto;mix-blend-mode:normal"></path><path fill="#0087d1" d="m 73.011564,51.330201 a 0.26460981,0.26460981 0 0 0 -0.185518,0.08992 l -1.839683,2.117182 a 0.26460981,0.26460981 0 0 0 0.198956,0.437184 h 0.515729 l -0.0057,2.117183 a 0.26460981,0.26460981 0 0 0 0.263548,0.263549 h 2.117186 a 0.26460981,0.26460981 0 0 0 0.263549,-0.263549 l 0.0078,-2.117183 h 0.543118 a 0.26460981,0.26460981 0 0 0 0.197406,-0.43925 L 73.222402,51.41805 A 0.26460981,0.26460981 0 0 0 73.011564,51.3302 Z" color="#000" font-family="sans-serif" font-weight="400" overflow="visible" style="line-height:normal;font-variant-ligatures:normal;font-variant-position:normal;font-variant-caps:normal;font-variant-numeric:normal;font-variant-alternates:normal;font-feature-settings:normal;text-indent:0;text-align:start;text-decoration-line:none;text-decoration-style:solid;text-decoration-color:#000;text-transform:none;text-orientation:mixed;shape-padding:0;isolation:auto;mix-blend-mode:normal"></path><path fill="#aebdc0" style="line-height:normal;font-variant-ligatures:normal;font-variant-position:normal;font-variant-caps:normal;font-variant-numeric:normal;font-variant-alternates:normal;font-feature-settings:normal;text-indent:0;text-align:start;text-decoration-line:none;text-decoration-style:solid;text-decoration-color:#000;text-transform:none;text-orientation:mixed;shape-padding:0;isolation:auto;mix-blend-mode:normal" d="m 73.024999,57.150515 v 1.588019 h 3.426148 A 0.26460981,0.26460981 0 0 0 76.716762,58.4724 v -2.380734 a 0.26460981,0.26460981 0 0 0 -0.265615,-0.265618 h -1.588016 a 0.26460981,0.26460981 0 0 0 -0.263552,0.265618 v 1.058849 z" color="#000" font-family="sans-serif" font-weight="400" overflow="visible" paint-order="markers fill stroke"></path><path fill="#0178be" style="line-height:normal;font-variant-ligatures:normal;font-variant-position:normal;font-variant-caps:normal;font-variant-numeric:normal;font-variant-alternates:normal;font-feature-settings:normal;text-indent:0;text-align:start;text-decoration-line:none;text-decoration-style:solid;text-decoration-color:#000;text-transform:none;text-orientation:mixed;shape-padding:0;isolation:auto;mix-blend-mode:normal" d="m 73.024999,51.330201 v 5.025014 h 1.0511 a 0.26460981,0.26460981 0 0 0 0.263549,-0.263549 l 0.0078,-2.117183 h 0.543118 a 0.26460981,0.26460981 0 0 0 0.197406,-0.43925 L 73.222402,51.41805 A 0.26460981,0.26460981 0 0 0 73.024999,51.3302 Z" color="#000" font-family="sans-serif" font-weight="400" overflow="visible"></path></g></svg>